<svg width="42" height="42" viewBox="0 0 42 42" fill="none" xmlns="http://www.w3.org/2000/svg">
<path d="M14.789 3.44741L6.55066 10.7991V24.1355L15.611 16.045V10.014H20.6167C22.3723 10.014 23.7243 10.4329 24.6805 11.2793C25.6366 12.1258 26.112 13.3323 26.112 14.8998C26.112 16.4672 25.6366 17.6858 24.6805 18.5479C23.7243 19.3943 22.3723 19.8132 20.6167 19.8132H17.5135L6.55066 29.6031V38.5526H6.78155L15.611 30.6652V26.3798H21.5773C26.0445 26.3798 29.4741 25.3902 31.8567 23.4151C34.2549 21.4245 35.4494 18.5833 35.4494 14.8998C35.4494 11.2319 34.2549 8.41481 31.8567 6.4398C29.4741 4.44912 26.0445 3.44741 21.5773 3.44741H14.789Z" fill="white"/>
</svg>
